<?xml version="1.0" standalone="no"?>
<!DOCTYPE svg PUBLIC "-//W3C//DTD SVG 20010904//EN"
 "http://www.w3.org/TR/2001/REC-SVG-20010904/DTD/svg10.dtd">
<svg version="1.0" xmlns="http://www.w3.org/2000/svg"
 width="512.000000pt" height="512.000000pt" viewBox="0 0 512.000000 512.000000"
 preserveAspectRatio="xMidYMid meet">
<metadata>
Created by potrace 1.14, written by Peter Selinger 2001-2017
</metadata>
<g transform="translate(0.000000,512.000000) scale(0.100000,-0.100000)"
fill="#000000" stroke="none">
<path d="M0 3826 c0 -1018 3 -1295 13 -1299 9 -4 9 -6 0 -6 -17 -1 -18 -91 -2
-91 8 0 8 -4 2 -12 -6 -7 -11 -34 -11 -60 0 -43 2 -48 21 -47 21 0 21 1 2 9
-16 7 -17 9 -3 9 9 1 20 -4 23 -9 3 -5 14 -10 23 -10 13 0 14 2 4 9 -9 5 -3 8
18 9 17 0 28 -4 25 -9 -4 -5 10 -9 29 -9 19 0 38 5 42 11 7 11 294 9 294 -2 0
-8 -222 -21 -321 -19 -41 1 -93 1 -116 1 l-42 -1 -1 -1150 0 -1150 2560 0
2560 0 0 2560 0 2560 -2560 0 -2560 0 0 -1294z m3304 1056 c149 -142 348 -327
358 -331 5 -2 30 5 55 14 l45 17 56 -54 c86 -81 203 -192 345 -324 l128 -119
-3 -68 c-2 -59 0 -70 17 -79 19 -11 298 -270 445 -415 l85 -83 -1 -51 -2 -52
-139 -54 c-76 -29 -147 -58 -158 -63 -11 -5 -49 -20 -85 -34 -36 -14 -78 -30
-95 -37 -16 -7 -32 -13 -35 -14 -3 -1 -16 -6 -30 -12 -38 -17 -480 -193 -520
-208 -19 -8 -60 -23 -90 -34 -30 -12 -62 -21 -71 -21 -19 0 -44 26 -32 32 4 3
3 4 -2 3 -17 -4 -57 33 -50 45 4 6 15 8 25 5 21 -7 36 10 19 21 -7 4 -9 3 -6
-3 4 -7 -3 -10 -18 -9 -14 0 -25 4 -25 9 0 4 -5 7 -11 7 -8 0 -7 -6 2 -17 28
-34 -15 0 -88 71 -40 38 -70 73 -66 79 3 6 1 7 -5 3 -14 -9 -94 63 -85 77 4 6
11 3 19 -8 8 -10 17 -15 21 -12 11 12 -30 37 -43 26 -8 -7 -39 16 -98 73 -87
84 -93 95 -87 161 1 9 -3 17 -8 17 -6 0 -11 -17 -11 -37 0 -29 -3 -34 -12 -25
-16 16 -18 54 -4 71 9 12 8 12 -11 0 -15 -9 -19 -17 -13 -23 6 -6 10 -14 10
-19 0 -4 -20 9 -44 30 -41 36 -43 39 -28 61 8 12 12 25 8 29 -3 3 -6 1 -6 -5
0 -6 -8 -9 -17 -6 -15 5 -16 4 -3 -5 10 -7 11 -14 5 -20 -12 -12 -159 124
-150 139 3 5 0 8 -7 5 -7 -2 -31 11 -52 30 -35 31 -37 36 -25 52 13 16 12 17
-4 4 -25 -20 -46 1 -26 26 13 16 12 17 -4 4 -15 -12 -22 -9 -60 27 -23 22 -53
49 -66 60 -23 18 -23 20 -9 50 10 20 12 29 4 26 -13 -5 -17 38 -5 46 14 10
-15 80 -33 80 -24 0 -23 -15 3 -41 14 -14 17 -24 11 -32 -6 -7 -8 -29 -6 -49
3 -22 0 -38 -6 -38 -5 0 -10 7 -10 16 0 8 -4 13 -9 10 -5 -3 -14 1 -21 9 -10
12 -10 19 1 33 13 15 12 16 -4 3 -16 -13 -22 -10 -59 25 -23 21 -48 45 -56 52
-8 7 -12 15 -9 18 2 3 19 -9 36 -26 17 -17 31 -26 31 -18 -1 7 -17 26 -38 42
-34 27 -35 28 -10 22 25 -6 50 8 28 16 -14 5 -360 350 -360 360 0 4 3 8 8 8
13 -1 42 -27 42 -39 0 -6 2 -11 4 -11 2 0 10 -2 18 -5 10 -4 12 5 10 40 -4 45
-3 46 38 49 8 1 15 7 15 15 0 8 9 17 20 22 16 6 17 8 3 8 -9 1 -19 -3 -23 -9
-3 -5 -13 -7 -23 -4 -15 5 -15 4 -2 -6 13 -10 11 -11 -8 -7 -12 3 -20 2 -17
-3 7 -11 -24 -22 -46 -15 -11 4 -26 -2 -38 -14 -23 -23 -45 -28 -39 -9 4 10
1198 496 1222 498 5 0 46 -35 90 -78z m-1224 -422 c0 -5 -4 -10 -10 -10 -5 0
-10 5 -10 10 0 6 5 10 10 10 6 0 10 -4 10 -10z m-76 -96 c3 -8 2 -12 -4 -9 -6
3 -10 10 -10 16 0 14 7 11 14 -7z m-1 -59 c-3 -9 -8 -14 -10 -11 -3 3 -2 9 2
15 9 16 15 13 8 -4z m108 -92 c8 -10 -1 -5 -19 10 -19 15 -38 27 -43 27 -5 0
-9 5 -9 11 0 12 50 -22 71 -48z m-114 25 c-3 -8 -6 -5 -6 6 -1 11 2 17 5 13 3
-3 4 -12 1 -19z m353 -243 c47 -44 90 -84 96 -90 6 -5 27 -24 47 -42 33 -28
35 -35 27 -62 -6 -21 -5 -31 2 -31 7 0 7 -4 -1 -13 -8 -11 -5 -19 14 -35 29
-25 33 -18 8 11 -17 19 -17 20 0 14 16 -6 16 -4 2 23 -28 55 5 43 78 -26 40
-38 77 -73 83 -79 6 -5 78 -74 160 -152 82 -78 162 -151 177 -163 33 -26 34
-43 5 -59 -13 -6 -15 -9 -5 -7 14 5 17 -1 17 -35 0 -25 -4 -38 -10 -34 -6 4
-7 11 -4 17 4 6 3 8 -3 5 -5 -3 -50 32 -99 79 -54 52 -80 83 -66 79 13 -4 22
-2 22 4 0 6 -7 11 -15 11 -8 0 -12 6 -9 14 3 8 13 12 22 10 9 -3 2 8 -17 25
-34 30 -57 36 -28 7 8 -8 17 -12 21 -9 12 12 6 -14 -8 -33 -8 -10 -18 -15 -22
-11 -5 4 -2 13 6 18 12 9 12 10 -3 5 -28 -9 -54 10 -54 39 0 13 3 22 8 19 5
-3 9 0 9 6 0 7 -7 9 -16 6 -19 -7 -86 62 -79 82 3 8 -2 20 -10 28 -8 9 -15 12
-15 7 0 -5 5 -14 11 -20 8 -8 8 -13 0 -17 -6 -4 -11 -2 -11 5 0 8 -4 8 -16 -2
-13 -11 -28 1 -109 81 -51 52 -91 98 -89 102 3 4 -2 5 -10 2 -18 -7 -19 -4
-10 21 6 14 8 14 25 -1 18 -16 19 -16 19 3 0 29 -28 51 -36 29 -3 -9 -10 -13
-15 -10 -5 3 -6 11 -3 17 5 9 3 9 -6 0 -11 -10 -11 -15 0 -28 7 -8 8 -15 2
-15 -15 0 -35 28 -27 39 3 6 0 9 -7 6 -7 -3 -44 26 -83 65 -38 38 -66 70 -61
70 5 0 21 -13 36 -28 14 -16 31 -27 37 -25 6 2 14 -1 18 -6 4 -7 -1 -8 -12 -4
-15 6 -16 5 -3 -9 12 -13 16 -13 28 -1 19 19 28 8 11 -14 -12 -17 -12 -17 5
-1 21 19 13 40 -12 31 -15 -6 -15 -5 -3 10 12 15 12 17 -2 11 -19 -7 -63 21
-48 30 5 4 12 2 16 -4 3 -5 11 -10 17 -10 7 0 6 6 -2 15 -7 8 -19 15 -27 15
-8 0 -11 5 -7 12 5 8 2 9 -10 5 -10 -4 -15 -3 -11 3 3 6 1 10 -4 10 -6 0 -11
6 -11 13 0 7 -31 42 -69 77 -38 35 -67 68 -65 72 3 5 31 -15 62 -44 31 -29 95
-89 142 -133z m-347 160 c-3 -9 -8 -14 -10 -11 -3 3 -2 9 2 15 9 16 15 13 8
-4z m214 -188 c55 -51 147 -136 205 -190 79 -75 104 -104 101 -118 -6 -22 -23
-26 -23 -5 0 7 -8 20 -17 27 -14 12 -15 12 -9 0 7 -10 4 -12 -12 -7 -11 4 -23
2 -27 -3 -3 -6 0 -8 8 -5 8 3 18 1 22 -5 4 -7 0 -8 -11 -4 -16 6 -15 4 2 -19
13 -18 23 -23 31 -17 7 7 14 6 18 -1 3 -5 1 -10 -4 -10 -6 0 -11 -5 -11 -11 0
-6 6 -9 13 -6 8 3 14 -1 14 -9 0 -8 -2 -14 -5 -14 -2 0 -42 36 -87 80 -67 66
-82 86 -79 107 1 14 9 30 16 35 9 7 7 8 -7 3 -11 -4 -26 -8 -32 -8 -15 0 -17
-13 -3 -22 6 -3 10 -11 10 -17 0 -6 -16 6 -35 26 -19 21 -32 43 -28 49 4 6 0
8 -10 4 -28 -11 -39 17 -17 43 11 13 20 26 19 29 0 3 -42 44 -92 91 -51 47
-105 101 -122 120 -29 33 -28 33 22 -8 28 -23 96 -84 150 -135z m63 163 c-22
-14 -5 -23 20 -10 15 8 20 8 16 1 -4 -6 -2 -11 5 -11 10 0 10 -3 1 -12 -8 -8
-9 -15 0 -25 24 -30 0 -21 -31 11 -31 32 -35 56 -8 56 7 0 6 -4 -3 -10z m-262
-85 c17 -20 17 -20 -5 -1 -17 14 -23 29 -21 55 l1 36 4 -35 c3 -19 12 -44 21
-55z m339 39 c-3 -3 -12 -4 -19 -1 -8 3 -5 6 6 6 11 1 17 -2 13 -5z m-352
-123 c0 -33 -3 -57 -7 -54 -5 2 -8 29 -8 59 0 30 3 54 8 54 4 0 7 -27 7 -59z
m244 15 c-3 -3 -11 5 -18 17 -13 21 -12 21 5 5 10 -10 16 -20 13 -22z m-198
-13 c13 -16 12 -17 -3 -4 -17 13 -22 21 -14 21 2 0 10 -8 17 -17z m84 -23 c10
-11 16 -20 13 -20 -3 0 -13 9 -23 20 -10 11 -16 20 -13 20 3 0 13 -9 23 -20z
m-3 -47 c27 -27 64 -61 82 -77 17 -16 65 -61 106 -100 41 -39 105 -98 142
-130 37 -32 65 -63 62 -67 -8 -14 -22 -10 -26 6 -2 12 -9 10 -30 -10 -16 -14
-28 -22 -28 -17 0 5 10 17 23 25 22 16 22 16 -68 99 -141 130 -331 318 -322
318 5 0 31 -21 59 -47z m73 -14 c11 -17 -1 -21 -15 -4 -8 9 -8 15 -2 15 6 0
14 -5 17 -11z m-202 -55 c-3 -46 -1 -48 59 -105 34 -32 65 -56 70 -53 5 3 7 1
6 -5 -2 -5 30 -41 70 -80 54 -51 79 -68 95 -66 16 4 18 2 8 -8 -9 -9 9 -32 86
-105 54 -52 83 -84 66 -73 -18 12 -36 27 -40 34 -5 7 -66 66 -138 131 -71 66
-167 155 -212 198 l-83 79 0 55 c0 30 4 53 8 50 4 -2 6 -26 5 -52z m87 30 c0
-8 -19 -13 -24 -6 -3 5 1 9 9 9 8 0 15 -2 15 -3z m1 -68 c35 -33 115 -107 177
-165 62 -58 146 -136 185 -173 39 -37 69 -69 66 -72 -3 -3 -33 21 -67 54 -34
33 -62 59 -62 57 0 -3 -185 170 -299 281 -97 95 -97 108 0 18z m399 23 c0 -6
-4 -7 -10 -4 -5 3 -10 11 -10 16 0 6 5 7 10 4 6 -3 10 -11 10 -16z m-306 -68
c-2 -3 -12 3 -22 13 -16 17 -16 18 5 5 12 -7 20 -15 17 -18z m50 5 c-3 -8 -13
-17 -22 -21 -13 -5 -13 -2 3 15 21 24 26 25 19 6z m56 -45 c0 -5 -7 -11 -14
-14 -10 -4 -13 -1 -9 9 6 15 23 19 23 5z m0 -53 c0 -6 -6 -5 -15 2 -8 7 -15
14 -15 16 0 2 7 1 15 -2 8 -4 15 -11 15 -16z m70 -26 c0 -3 -9 3 -20 13 -11
10 -20 23 -20 28 0 6 9 0 20 -13 11 -13 20 -25 20 -28z m127 26 c-3 -8 -6 -5
-6 6 -1 11 2 17 5 13 3 -3 4 -12 1 -19z m307 -223 c297 -278 281 -262 268
-277 -6 -8 -8 -18 -4 -23 4 -4 -3 -3 -15 4 -33 17 -41 35 -12 26 23 -7 23 -6
-5 24 -20 21 -33 28 -40 21 -15 -15 -22 -12 -23 10 -1 13 3 18 10 14 7 -4 -3
7 -22 23 -32 27 -36 28 -51 14 -15 -15 -15 -18 4 -37 14 -14 25 -17 34 -11 7
6 12 6 12 -1 0 -6 -6 -12 -12 -14 -7 -3 0 -13 17 -23 17 -10 43 -33 59 -49 15
-17 25 -25 22 -19 -5 8 -2 11 6 8 8 -3 14 -15 15 -25 2 -26 -8 -20 -77 46
-193 184 -258 245 -283 264 -38 30 -51 56 -37 78 9 15 10 14 5 -5 -4 -14 -2
-23 4 -23 6 0 10 -5 9 -11 -2 -6 3 -14 11 -17 8 -2 11 0 8 5 -3 5 3 9 14 9 19
0 20 -1 2 -14 -17 -13 -17 -14 1 -24 10 -6 27 -19 37 -29 24 -24 33 -24 26 1
-3 10 0 21 6 23 7 2 -6 20 -28 40 -28 25 -42 33 -47 24 -6 -9 -8 -8 -8 3 0 8
-11 27 -24 42 -14 14 -22 29 -18 34 4 4 2 4 -4 1 -6 -3 -24 7 -40 24 -16 17
-36 35 -45 40 -14 7 -17 4 -16 -19 1 -15 10 -35 21 -44 24 -22 13 -23 -19 -2
-15 9 -22 21 -18 28 11 17 12 65 2 72 -5 3 -7 10 -3 15 3 6 31 -14 62 -43 32
-29 120 -111 196 -183z m-446 160 c-3 -3 -9 2 -12 12 -6 14 -5 15 5 6 7 -7 10
-15 7 -18z m42 1 c0 -2 -7 -7 -16 -10 -8 -3 -12 -2 -9 4 6 10 25 14 25 6z
m-140 -16 c0 -5 -2 -10 -4 -10 -3 0 -8 5 -11 10 -3 6 -1 10 4 10 6 0 11 -4 11
-10z m488 -42 c28 -29 49 -54 46 -57 -5 -5 -111 90 -113 102 -3 19 21 3 67
-45z m-143 32 c3 -5 2 -10 -4 -10 -5 0 -13 5 -16 10 -3 6 -2 10 4 10 5 0 13
-4 16 -10z m42 -55 c0 -6 -3 -9 -8 -7 -13 3 -11 -12 4 -28 6 -8 0 -4 -15 9
-15 13 -25 27 -23 31 6 10 40 6 42 -5z m-55 -28 c18 -18 65 -62 103 -97 39
-35 137 -127 219 -204 82 -78 154 -144 160 -148 8 -5 8 -10 -1 -19 -6 -6 -9
-19 -6 -28 4 -12 3 -12 -9 2 -13 18 -15 18 -29 1 -12 -16 -12 -17 2 -12 11 5
16 1 15 -10 0 -9 5 -16 12 -14 6 1 12 -5 12 -15 0 -14 -3 -14 -22 3 -37 32
-56 58 -50 68 3 6 7 5 10 -2 4 -14 42 3 42 19 0 6 -4 8 -9 5 -13 -9 -39 3 -45
20 -3 8 -1 12 4 9 6 -3 7 1 4 9 -3 9 -10 16 -14 16 -14 0 -18 -24 -8 -43 18
-36 -4 -38 -38 -3 -43 44 -45 60 -2 20 17 -16 29 -22 25 -13 -3 9 -2 21 3 28
5 9 -34 54 -116 134 -142 140 -150 147 -184 165 -17 8 -18 11 -5 7 17 -4 16
-2 -5 15 -14 11 -41 35 -60 53 -19 18 -38 31 -42 30 -5 -2 -8 6 -8 17 0 27 3
26 42 -13z m163 -298 c44 -41 116 -109 160 -150 44 -41 99 -92 123 -114 29
-26 41 -44 36 -54 -11 -26 -11 -65 0 -80 41 -54 -121 90 -376 336 -120 115
-104 110 22 -7 51 -47 96 -84 102 -82 5 1 7 -2 4 -6 -3 -5 2 -16 12 -25 15
-14 19 -14 41 4 13 11 21 22 17 26 -3 3 -15 -2 -26 -12 -11 -10 -20 -13 -20
-8 0 6 7 14 17 17 14 6 11 12 -18 42 -18 19 -39 32 -47 29 -8 -3 -10 0 -6 7 9
14 -135 150 -152 144 -7 -3 -11 0 -8 7 2 7 -9 26 -26 42 -16 16 -30 25 -30 21
0 -5 -9 2 -19 15 -40 50 -7 37 52 -19 34 -32 98 -92 142 -133z m-130 163 c-3
-3 -11 0 -18 7 -9 10 -8 11 6 5 10 -3 15 -9 12 -12z m2218 -104 l0 -53 -64
-24 c-35 -12 -72 -27 -81 -32 -50 -26 -192 -78 -199 -73 -5 3 -9 1 -9 -4 0 -5
-39 -24 -87 -42 -49 -18 -101 -39 -118 -46 -90 -41 -356 -144 -372 -143 -10 0
0 7 21 15 50 18 60 29 21 21 -16 -4 -24 -4 -16 0 11 5 11 7 0 15 -10 6 -6 7
11 2 39 -11 70 -13 70 -4 0 4 17 12 37 17 l37 9 -34 16 -35 17 70 -4 c64 -4
68 -3 50 11 -12 9 -31 13 -50 9 -29 -5 -29 -4 4 8 19 7 37 19 39 25 5 16 -9
15 -34 -3 -12 -8 -24 -12 -27 -9 -2 3 -22 -4 -43 -15 -21 -12 -44 -21 -51 -21
-8 0 -21 -4 -31 -10 -37 -20 -254 -106 -259 -102 -2 1 -17 -6 -35 -16 -28 -16
-32 -23 -31 -60 0 -23 -3 -42 -7 -42 -18 0 -71 53 -66 66 3 8 0 11 -8 8 -7 -3
-21 5 -32 17 -17 21 -18 22 -1 16 11 -4 16 -3 12 3 -4 6 -12 9 -18 8 -19 -4
-69 34 -63 48 2 6 -2 20 -10 31 -14 17 -14 16 -4 -4 14 -29 0 -30 -24 -2 -11
13 -14 24 -8 28 12 7 -21 51 -39 51 -7 0 -2 -11 12 -26 36 -40 7 -25 -45 23
-26 25 -43 49 -40 57 3 7 -2 20 -10 29 -18 18 -21 37 -6 37 6 0 10 -5 10 -11
0 -5 4 -7 10 -4 5 3 -7 20 -28 38 -20 18 -40 36 -44 42 -4 5 -6 0 -6 -12 2
-14 7 -19 17 -15 10 4 12 1 7 -7 -5 -7 -17 -10 -28 -8 -11 3 0 -11 27 -35 25
-22 45 -44 45 -50 0 -10 -32 16 -134 110 -50 46 -65 80 -58 135 2 16 7 27 12
25 8 -3 71 -61 296 -275 193 -182 211 -195 247 -187 29 6 1136 447 1167 464
23 14 33 -4 33 -62z m-2250 -17 c-5 -7 -43 31 -43 42 0 6 10 -1 23 -14 13 -13
22 -26 20 -28z m212 -49 c-3 -3 -11 0 -18 7 -9 10 -8 11 6 5 10 -3 15 -9 12
-12z m213 -1 c3 -8 -1 -12 -9 -9 -7 2 -15 10 -17 17 -3 8 1 12 9 9 7 -2 15
-10 17 -17z m-164 -40 c-2 -3 -12 3 -22 13 -16 17 -16 18 5 5 12 -7 20 -15 17
-18z m279 -13 c18 -18 93 -89 167 -158 74 -69 171 -160 215 -203 74 -72 83
-78 115 -74 19 3 297 109 618 237 330 132 586 229 591 224 4 -5 6 -32 3 -61
-3 -47 -6 -53 -35 -62 -16 -6 -32 -9 -34 -7 -2 2 10 8 26 14 28 10 31 15 31
54 0 24 -4 39 -8 33 -4 -5 -14 -11 -22 -13 -29 -5 -70 -24 -66 -31 2 -3 -8 -7
-22 -8 -15 -1 -45 -10 -67 -19 -22 -10 -60 -25 -85 -35 -73 -27 -203 -79 -225
-89 -11 -5 -85 -34 -165 -65 -80 -31 -154 -60 -165 -65 -51 -22 -100 -42 -232
-94 -116 -46 -153 -56 -200 -56 l-58 1 -118 112 c-65 62 -162 153 -215 204
-53 50 -94 94 -91 97 4 4 33 -19 65 -51 32 -32 64 -57 72 -55 8 2 11 -1 7 -7
-9 -15 8 -14 23 1 6 6 15 8 19 4 4 -4 0 -12 -9 -17 -17 -9 -15 -39 3 -39 4 0
5 8 2 18 -6 14 -4 15 9 5 14 -12 28 -8 28 8 0 5 -6 6 -14 3 -9 -3 -13 1 -13
13 2 13 -4 17 -20 16 -15 -2 -21 2 -17 10 6 17 -32 52 -41 37 -8 -13 -65 19
-65 38 0 7 -4 10 -10 7 -6 -3 -10 4 -10 16 0 21 1 21 18 6 10 -10 22 -17 25
-17 4 0 -11 16 -33 36 -22 20 -40 43 -40 50 0 21 7 18 43 -18z m-246 -13 c8
-9 13 -18 11 -21 -3 -2 -13 5 -23 16 -21 23 -11 27 12 5z m373 -5 c0 -5 -7
-10 -15 -10 -8 0 -15 5 -15 10 0 6 7 10 15 10 8 0 15 -4 15 -10z m-150 -21 c0
-6 -4 -7 -10 -4 -5 3 -10 11 -10 16 0 6 5 7 10 4 6 -3 10 -11 10 -16z m1705
-18 c-3 -6 -11 -11 -16 -11 -5 0 -4 6 3 14 14 16 24 13 13 -3z m-40 -20 c9
-16 -59 -33 -86 -21 -22 10 -21 10 9 5 18 -2 31 -1 27 4 -3 5 5 7 17 3 14 -3
19 -2 14 6 -4 7 -3 12 3 12 5 0 12 -4 16 -9z m-95 -33 c8 -3 -2 -6 -23 -6 -34
0 -36 1 -20 13 10 7 20 10 23 6 3 -5 12 -10 20 -13z m79 -2 c-2 -2 -29 -14
-59 -26 -30 -12 -64 -26 -75 -31 -17 -7 -320 -129 -365 -146 -10 -4 -12 -3 -5
4 6 6 32 18 58 28 33 13 44 21 35 26 -7 5 -20 9 -28 9 -13 0 -13 -1 0 -10 11
-8 7 -9 -15 -4 -38 9 -44 14 -16 14 17 0 22 4 17 16 -5 12 1 11 28 -5 32 -20
35 -21 80 -4 45 17 61 33 32 33 -8 0 -16 -6 -19 -12 -2 -7 -8 -9 -13 -5 -13
13 18 28 46 22 34 -7 120 19 95 29 -13 5 -15 10 -8 17 13 13 36 2 28 -12 -11
-16 11 -10 46 14 19 13 39 22 45 20 6 -2 26 3 45 11 32 14 57 21 48 12z
m-1513 -142 c77 -72 164 -154 194 -183 l55 -52 -35 7 c-19 4 -51 8 -70 9 -19
1 -38 3 -42 4 -14 2 -8 19 8 25 11 4 15 2 11 -7 -3 -8 3 -13 14 -14 17 -2 18
0 4 13 -22 22 -19 40 3 21 10 -10 22 -17 26 -17 5 0 -6 14 -24 30 -37 34 -48
36 -76 14 -16 -13 -16 -15 -1 -10 9 3 25 9 35 12 9 3 7 -1 -6 -8 -17 -11 -20
-16 -10 -26 7 -7 8 -12 3 -12 -19 0 -93 83 -88 97 4 11 0 14 -13 11 -10 -2
-29 6 -41 18 -26 24 -32 44 -6 23 14 -12 16 -12 11 1 -3 8 -13 14 -23 13 -19
-1 -85 54 -85 71 0 6 4 4 10 -4 5 -8 13 -11 17 -6 4 4 -1 15 -12 23 -14 11
-16 17 -7 20 6 3 12 9 12 14 0 6 -5 7 -12 3 -7 -5 -9 -2 -5 8 3 9 0 21 -6 28
-9 9 -8 11 4 8 9 -1 79 -62 155 -134z m-19 98 c-9 -11 -12 -10 -19 2 -13 22 0
39 17 23 9 -9 10 -16 2 -25z m1614 26 c-1 -5 -2 -32 -2 -60 l-1 -53 -8 40 c-4
22 -6 43 -4 47 5 8 -67 -18 -201 -72 -44 -17 -92 -36 -107 -42 -16 -6 -25 -15
-22 -23 3 -7 1 -16 -5 -20 -7 -4 -8 0 -5 10 5 13 1 15 -22 9 -16 -3 -46 -15
-67 -25 -21 -10 -44 -19 -51 -19 -8 0 -16 -3 -18 -7 -1 -5 -30 -18 -63 -29
-33 -12 -109 -41 -169 -64 -107 -41 -190 -62 -173 -44 13 14 890 364 905 361
7 -1 13 -5 13 -9z m-311 -18 c-8 -5 -19 -10 -25 -10 -5 0 -3 5 5 10 8 5 20 10
25 10 6 0 3 -5 -5 -10z m-40 -10 c0 -5 -5 -10 -11 -10 -5 0 -7 5 -4 10 3 6 8
10 11 10 2 0 4 -4 4 -10z m25 -20 c3 -5 1 -10 -4 -10 -6 0 -11 5 -11 10 0 6 2
10 4 10 3 0 8 -4 11 -10z m-25 -10 c0 -5 -4 -10 -10 -10 -5 0 -10 5 -10 10 0
6 5 10 10 10 6 0 10 -4 10 -10z m-503 -26 c-3 -3 -12 -4 -19 -1 -8 3 -5 6 6 6
11 1 17 -2 13 -5z m40 -10 c-3 -3 -12 -4 -19 -1 -8 3 -5 6 6 6 11 1 17 -2 13
-5z m707 -3 c4 -5 -3 -7 -14 -4 -23 6 -26 13 -6 13 8 0 17 -4 20 -9z m81 -11
c-3 -5 -12 -10 -18 -10 -7 0 -6 4 3 10 19 12 23 12 15 0z m-535 -32 c8 -3 0
-6 -17 -5 -27 0 -31 3 -21 14 6 8 14 10 17 5 3 -5 13 -11 21 -14z m461 1 c-24
-11 -49 -18 -55 -16 -6 2 9 11 34 20 62 22 74 20 21 -4z m-1411 -216 c0 -18
-41 11 -112 82 -82 80 -109 102 -92 73 5 -8 1 -8 -12 2 -30 22 -30 24 -10 16
19 -6 19 -6 3 12 -9 10 -17 24 -17 31 0 7 54 -38 120 -100 66 -62 120 -114
120 -116z m1510 169 l0 -58 -91 -37 c-68 -28 -104 -37 -148 -37 -31 0 -62 -5
-69 -12 -7 -7 -12 -9 -12 -5 0 4 9 16 20 27 11 11 20 16 20 10 0 -5 23 -10 51
-10 35 0 48 3 43 12 -4 6 -3 8 3 5 13 -8 102 21 124 39 8 8 21 14 28 14 7 0 9
5 6 10 -3 6 -2 10 2 10 5 0 10 11 11 25 1 14 -2 25 -6 25 -25 0 -167 -60 -164
-70 1 -6 -2 -9 -6 -6 -9 5 -107 -27 -239 -80 -34 -13 -73 -24 -87 -24 -14 0
-26 -4 -26 -10 0 -5 -7 -10 -15 -10 -8 0 -15 3 -15 8 0 6 541 229 563 231 4 1
7 -25 7 -57z m-933 42 c-3 -3 -12 -4 -19 -1 -8 3 -5 6 6 6 11 1 17 -2 13 -5z
m243 -24 c-8 -5 -19 -10 -25 -10 -5 0 -3 5 5 10 8 5 20 10 25 10 6 0 3 -5 -5
-10z m520 6 c0 -3 -4 -8 -10 -11 -5 -3 -10 -1 -10 4 0 6 5 11 10 11 6 0 10 -2
10 -4z m-780 -14 c0 -4 -23 -17 -52 -28 -29 -10 -57 -21 -62 -23 -5 -2 -6 1
-2 7 3 6 2 13 -4 17 -13 8 -3 25 13 25 8 0 8 -3 -1 -9 -23 -14 15 -23 41 -9
12 6 29 15 37 19 20 10 30 11 30 1z m740 4 c0 -3 -4 -8 -10 -11 -5 -3 -10 -1
-10 4 0 6 5 11 10 11 6 0 10 -2 10 -4z m-525 -35 c-6 -5 -25 10 -25 20 0 5 6
4 14 -3 8 -7 12 -15 11 -17z m112 14 c24 5 25 4 6 -4 -39 -17 -56 -17 -59 2
-2 14 1 16 11 7 7 -6 26 -8 42 -5z m383 1 c0 -2 -21 -11 -47 -21 -27 -10 -72
-29 -101 -42 -29 -14 -55 -23 -58 -20 -3 2 10 10 28 16 27 10 30 14 18 22 -12
8 -10 9 6 4 13 -3 28 0 36 8 7 7 18 12 25 10 6 -2 24 3 40 11 26 14 53 21 53
12z m-1468 -31 c3 3 11 -3 19 -12 12 -16 12 -17 -2 -6 -16 13 -29 8 -29 -9 0
-5 5 -6 10 -3 6 4 9 1 8 -6 -2 -7 9 -13 27 -14 51 -4 53 -4 60 -22 5 -15 4
-16 -6 -5 -15 14 -33 16 -24 2 4 -6 -1 -7 -12 -4 -12 4 -10 -1 7 -15 16 -12
29 -16 35 -10 12 12 25 12 25 -1 0 -5 -7 -10 -16 -10 -9 0 -12 -5 -8 -11 14
-24 -16 -2 -75 53 -39 36 -61 65 -61 79 0 21 1 21 18 6 10 -10 21 -15 24 -12z
m605 19 c-3 -3 -12 -4 -19 -1 -8 3 -5 6 6 6 11 1 17 -2 13 -5z m339 -9 c10 -8
15 -14 9 -14 -5 0 -19 6 -29 14 -11 8 -15 15 -10 15 6 0 19 -7 30 -15z m381 9
c-3 -3 -12 -4 -19 -1 -8 3 -5 6 6 6 11 1 17 -2 13 -5z m-788 -65 c-22 -14 -33
-10 -19 6 7 8 10 21 7 29 -3 8 -3 17 1 21 4 3 11 -6 16 -21 6 -19 5 -29 -5
-35z m91 42 c0 -5 -8 -11 -17 -14 -10 -2 -27 -8 -38 -12 -11 -4 -7 2 10 14 32
23 45 26 45 12z m399 4 c-8 -8 -282 -115 -293 -115 -6 1 6 9 28 19 l38 18 -31
11 c-17 6 -31 13 -31 16 0 3 19 -1 41 -9 52 -19 54 -19 39 0 -9 10 -9 15 -1
15 6 0 11 -4 11 -10 0 -5 7 -10 16 -10 8 0 12 4 9 10 -3 5 0 7 9 4 8 -3 29 3
48 12 55 30 134 56 117 39z m-110 -8 c-2 -1 -13 -9 -24 -17 -19 -14 -19 -14
-6 3 7 9 18 17 24 17 6 0 8 -1 6 -3z m706 -17 c-3 -5 -14 -10 -23 -9 -14 0
-13 2 3 9 27 11 27 11 20 0z m-1391 -45 c-7 -16 -24 -21 -24 -6 0 8 7 13 27
20 1 1 0 -6 -3 -14z m1015 11 c-9 -9 -112 -46 -116 -42 -2 2 20 13 49 25 51
19 76 26 67 17z m-489 -21 c0 -2 -17 -3 -37 -3 -28 0 -33 2 -18 8 17 6 55 3
55 -5z m204 -64 c4 -5 -3 -7 -14 -4 -23 6 -26 13 -6 13 8 0 17 -4 20 -9z
m-1461 -8 c-13 -2 -35 -2 -50 0 -16 2 -5 4 22 4 28 0 40 -2 28 -4z m572 -2 c3
-5 0 -13 -6 -17 -7 -4 -9 -3 -5 4 4 8 -71 11 -260 11 -147 1 -270 3 -272 6 -3
3 117 5 266 5 156 0 273 -4 277 -9z m692 3 c-3 -3 -12 -4 -19 -1 -8 3 -5 6 6
6 11 1 17 -2 13 -5z m-1924 -11 c-23 -2 -64 -2 -90 0 -26 2 -7 3 42 3 50 0 71
-1 48 -3z m1977 3 c0 -2 -7 -7 -16 -10 -8 -3 -12 -2 -9 4 6 10 25 14 25 6z
m-2912 -13 c-10 -2 -28 -2 -40 0 -13 2 -5 4 17 4 22 1 32 -1 23 -4z m200 0
c-32 -2 -84 -2 -115 0 -32 2 -6 3 57 3 63 0 89 -1 58 -3z m-1155 -10 c-7 -2
-21 -2 -30 0 -10 3 -4 5 12 5 17 0 24 -2 18 -5z m445 0 c-71 -2 -185 -2 -255
0 -71 1 -13 3 127 3 140 0 198 -2 128 -3z m3559 1 c-3 -3 -12 -4 -19 -1 -8 3
-5 6 6 6 11 1 17 -2 13 -5z m249 -8 c12 -12 6 -15 -42 -18 -75 -4 -154 2 -154
13 0 4 30 10 68 12 37 2 77 4 90 5 13 1 30 -4 38 -12z m-1150 -7 c4 -8 9 -7
15 2 5 8 9 9 9 4 0 -7 81 -11 226 -13 124 -2 224 1 221 5 -4 7 201 9 352 4
l39 -1 1 -580 2 -580 -291 -2 c-159 -1 -329 -3 -377 -3 l-88 0 -7 564 c-5 404
-10 567 -18 575 -9 8 -10 -131 -4 -565 l7 -576 -78 -6 c-43 -4 -214 -7 -380
-7 l-303 0 -6 518 c-3 284 -8 543 -9 575 l-3 57 90 1 c397 6 581 15 579 27 -4
15 13 16 23 1z m-108 -6 c-43 -2 -113 -2 -155 0 -43 1 -8 3 77 3 85 0 120 -2
78 -3z m-588 -9 c-13 -4 -14 -72 -6 -580 4 -316 5 -578 1 -582 -4 -4 -174 -8
-379 -10 l-373 -4 -6 363 c-4 199 -7 459 -7 578 l0 216 368 4 c202 2 369 7
370 12 2 5 13 8 25 8 13 -1 16 -3 7 -5z m153 -1 c-7 -2 -19 -2 -25 0 -7 3 -2
5 12 5 14 0 19 -2 13 -5z m-1933 -24 c65 -5 -189 -17 -387 -18 -234 -1 -326
10 -163 20 83 5 481 3 550 -2z m994 -570 c4 -314 6 -572 4 -574 -2 -1 -172 -5
-379 -7 l-376 -4 -7 115 c-4 87 -10 987 -7 1034 1 4 171 7 379 7 l379 0 7
-571z m-1261 474 c-7 -2 -19 -2 -25 0 -7 3 -2 5 12 5 14 0 19 -2 13 -5z m-3
-53 c0 -5 -7 -10 -15 -10 -8 0 -15 5 -15 10 0 6 7 10 15 10 8 0 15 -4 15 -10z
m-272 -21 c-2 -6 -8 -10 -13 -10 -5 0 -11 4 -13 10 -2 6 4 11 13 11 9 0 15 -5
13 -11z m265 -6 c-7 -2 -21 -2 -30 0 -10 3 -4 5 12 5 17 0 24 -2 18 -5z m-326
-99 c-3 -3 -12 -4 -19 -1 -8 3 -5 6 6 6 11 1 17 -2 13 -5z m1 -21 c-10 -2 -28
-2 -40 0 -13 2 -5 4 17 4 22 1 32 -1 23 -4z m67 -53 c-3 -5 -14 -10 -23 -9
-14 0 -13 2 3 9 27 11 27 11 20 0z m228 3 c-13 -2 -35 -2 -50 0 -16 2 -5 4 22
4 28 0 40 -2 28 -4z m-230 -90 c-13 -2 -33 -2 -45 0 -13 2 -3 4 22 4 25 0 35
-2 23 -4z m140 -740 c-7 -2 -21 -2 -30 0 -10 3 -4 5 12 5 17 0 24 -2 18 -5z
m540 -4 c-17 -17 -49 -19 -259 -19 -140 0 -201 4 -230 14 -36 13 -15 15 230
15 201 1 267 -2 259 -10z m-286 -55 c-3 -3 -12 -4 -19 -1 -8 3 -5 6 6 6 11 1
17 -2 13 -5z m3024 -6 c0 -2 2 -246 4 -543 2 -297 1 -523 -2 -503 l-4 37 -57
-7 c-78 -9 -511 -5 -594 6 -65 8 -68 7 -68 -12 0 -12 -5 -28 -10 -36 -6 -10
-10 111 -10 351 0 201 -3 441 -7 532 l-6 167 184 2 c101 2 271 4 377 6 105 2
192 2 193 0z m-771 -180 c0 -95 2 -339 4 -543 3 -203 2 -352 -2 -330 l-7 40
-85 -1 c-47 0 -111 -2 -144 -4 -35 -1 -61 2 -65 9 -5 7 -17 8 -39 2 -17 -5
-40 -7 -52 -4 -20 5 -29 -12 -9 -19 6 -2 -29 -2 -78 0 -48 2 -125 0 -170 -3
l-83 -7 -2 -56 c-3 -85 -15 524 -17 820 l-1 257 158 3 c86 2 255 4 375 6 l217
3 0 -173z m-770 -30 c0 -106 2 -359 4 -563 2 -203 2 -348 -1 -320 -4 47 -21
75 -33 55 -3 -5 -61 -11 -130 -13 -69 -3 -132 -8 -141 -12 -9 -3 -63 -8 -120
-10 -88 -4 -144 -9 -284 -28 -14 -2 -19 -9 -18 -25 2 -12 -1 -22 -6 -22 -8 0
-15 309 -24 942 l-2 177 80 4 c44 1 214 4 378 5 l297 2 0 -192z"/>
<path d="M2217 4539 c7 -7 15 -10 18 -7 3 3 -2 9 -12 12 -14 6 -15 5 -6 -5z"/>
<path d="M2216 4509 c4 -8 -1 -9 -17 -4 -19 5 -21 4 -9 -4 12 -9 13 -11 1 -11
-8 0 -12 -3 -9 -6 4 -3 18 1 33 9 23 12 25 15 11 20 -11 4 -15 3 -10 -4z"/>
<path d="M2125 4370 c3 -5 8 -10 11 -10 2 0 4 5 4 10 0 6 -5 10 -11 10 -5 0
-7 -4 -4 -10z"/>
<path d="M3703 4340 c-80 -17 -153 -68 -153 -107 0 -23 61 -82 96 -93 42 -14
39 -19 -16 -31 -75 -17 -150 21 -150 76 0 12 -13 15 -61 15 l-61 0 7 -27 c16
-68 122 -133 214 -133 117 0 290 61 357 124 24 24 44 50 44 59 0 25 -51 79
-95 98 -50 22 -127 30 -182 19z m137 -78 c33 -27 21 -69 -25 -88 -45 -18 -71
-18 -106 3 -36 22 -40 64 -7 87 31 22 110 21 138 -2z"/>
<path d="M2394 4048 c-4 -7 -3 -8 4 -4 7 4 12 2 12 -3 0 -6 5 -11 10 -11 15 0
12 17 -5 23 -8 4 -17 1 -21 -5z"/>
<path d="M2430 3991 c0 -10 19 -25 25 -20 1 2 -3 10 -11 17 -8 7 -14 8 -14 3z"/>
<path d="M3095 3960 c-3 -6 -16 -8 -29 -4 -58 14 -60 -67 -2 -86 53 -17 126
10 126 47 0 36 -78 71 -95 43z"/>
<path d="M4220 3945 c-33 -19 -21 -19 21 0 19 8 27 14 19 14 -8 0 -26 -6 -40
-14z"/>
<path d="M4160 3920 c-8 -5 -10 -10 -5 -10 6 0 17 5 25 10 8 5 11 10 5 10 -5
0 -17 -5 -25 -10z"/>
<path d="M4020 3865 c-14 -8 -20 -14 -15 -14 6 0 21 6 35 14 14 8 21 14 15 14
-5 0 -21 -6 -35 -14z"/>
<path d="M2610 3836 c0 -2 7 -7 16 -10 8 -3 12 -2 9 4 -6 10 -25 14 -25 6z"/>
<path d="M3893 3816 c-28 -12 -55 -25 -60 -30 -9 -8 91 29 117 44 27 16 -4 9
-57 -14z"/>
<path d="M2705 3750 c-3 -6 1 -7 9 -4 18 7 21 14 7 14 -6 0 -13 -4 -16 -10z"/>
<path d="M3710 3740 c-8 -5 -10 -10 -5 -10 6 0 17 5 25 10 8 5 11 10 5 10 -5
0 -17 -5 -25 -10z"/>
<path d="M3630 3710 c-8 -5 -10 -10 -5 -10 6 0 17 5 25 10 8 5 11 10 5 10 -5
0 -17 -5 -25 -10z"/>
<path d="M3510 3664 c-36 -14 -69 -29 -74 -35 -5 -5 26 5 69 22 44 17 82 32
84 35 9 9 -16 2 -79 -22z"/>
<path d="M3380 3610 c-18 -12 -2 -12 25 0 13 6 15 9 5 9 -8 0 -22 -4 -30 -9z"/>
<path d="M3280 3570 c-8 -5 -10 -10 -5 -10 6 0 17 5 25 10 8 5 11 10 5 10 -5
0 -17 -5 -25 -10z"/>
<path d="M3230 3550 c-8 -5 -10 -10 -5 -10 6 0 17 5 25 10 8 5 11 10 5 10 -5
0 -17 -5 -25 -10z"/>
<path d="M3120 3505 c-14 -8 -20 -14 -15 -14 6 0 21 6 35 14 14 8 21 14 15 14
-5 0 -21 -6 -35 -14z"/>
<path d="M3090 3394 c0 -8 5 -12 10 -9 6 4 8 11 5 16 -9 14 -15 11 -15 -7z"/>
<path d="M4769 3397 c-23 -9 -23 -9 -4 -17 32 -13 42 -11 47 8 6 21 -7 23 -43
9z m31 -7 c0 -5 -5 -10 -11 -10 -5 0 -7 5 -4 10 3 6 8 10 11 10 2 0 4 -4 4
-10z"/>
<path d="M3105 3359 c-3 -4 2 -6 10 -5 21 3 28 13 10 13 -9 0 -18 -4 -20 -8z"/>
<path d="M4675 3360 c-3 -6 1 -7 9 -4 18 7 21 14 7 14 -6 0 -13 -4 -16 -10z"/>
<path d="M3150 3353 c0 -11 26 -36 50 -47 8 -4 6 0 -5 8 -11 9 -26 24 -32 33
-7 9 -13 12 -13 6z"/>
<path d="M4715 3351 c-3 -5 0 -13 6 -17 8 -5 9 -3 4 6 -6 9 0 10 25 5 23 -5
30 -4 26 4 -9 13 -53 15 -61 2z"/>
<path d="M4790 3356 c0 -2 7 -7 16 -10 8 -3 12 -2 9 4 -6 10 -25 14 -25 6z"/>
<path d="M4570 3319 c-41 -17 -93 -37 -115 -46 -22 -8 -60 -23 -85 -34 -25
-10 -63 -26 -85 -34 -40 -16 -40 -16 -16 -29 18 -10 20 -15 11 -21 -9 -5 -19
-1 -29 11 -15 20 -17 20 -121 -22 -58 -23 -159 -63 -225 -89 -125 -50 -153
-65 -119 -65 11 0 26 6 32 12 8 8 15 9 20 3 16 -22 145 -5 192 25 13 9 13 11
0 20 -11 8 -4 10 28 8 23 -1 47 3 53 9 9 9 1 11 -32 9 -84 -6 -82 -5 -76 -26
3 -13 1 -18 -5 -13 -7 4 -8 1 -3 -7 5 -9 2 -10 -14 -5 -13 4 -27 1 -37 -9 -17
-18 -44 -21 -44 -7 0 5 8 12 18 14 9 2 -1 3 -23 1 -30 -2 -35 -1 -20 6 11 5
40 9 65 9 33 1 41 4 30 11 -8 5 -13 10 -10 10 3 0 29 9 57 19 42 15 61 17 94
10 23 -5 44 -7 47 -4 3 3 -1 5 -9 5 -8 1 -3 7 11 16 19 11 20 14 5 10 -26 -7
-54 8 -31 17 9 4 23 4 31 1 8 -4 15 -2 15 4 0 5 18 9 40 8 22 0 40 -4 40 -8 0
-11 -36 -19 -56 -12 -14 4 -16 3 -5 -4 11 -8 9 -11 -8 -17 -13 -4 -20 -9 -18
-11 7 -7 90 28 106 44 8 7 22 11 32 9 26 -7 24 3 -8 30 -14 13 -22 23 -16 23
5 0 20 -9 33 -20 13 -11 28 -20 33 -20 6 0 3 6 -6 13 -15 10 -10 12 34 14 63
1 89 20 29 20 -28 0 -37 -3 -28 -9 8 -5 -2 -6 -27 -2 -43 7 -59 14 -32 14 10
0 36 9 60 19 62 28 95 33 133 21 34 -12 80 -1 153 36 23 12 23 12 3 23 -40 21
-67 10 -40 -17 17 -17 -2 -15 -43 3 -28 11 -30 14 -12 15 13 0 37 9 55 20 45
27 27 24 -62 -11z m90 -19 c0 -5 -4 -10 -10 -10 -5 0 -10 5 -10 10 0 6 5 10
10 10 6 0 10 -4 10 -10z m-94 -9 c5 -5 18 -11 28 -13 17 -3 16 -5 -7 -15 -22
-10 -25 -10 -20 3 3 8 2 14 -3 13 -21 -4 -35 2 -29 11 8 12 18 13 31 1z m-17
-27 c14 -13 -11 -12 -40 1 l-34 16 35 -7 c19 -3 37 -8 39 -10z m-309 -104 c0
-5 -4 -10 -10 -10 -5 0 -10 5 -10 10 0 6 5 10 10 10 6 0 10 -4 10 -10z m-124
-58 c-10 -2 -22 0 -28 6 -6 6 0 7 19 4 21 -5 23 -7 9 -10z"/>
<path d="M3158 3290 c25 -27 48 -47 51 -45 2 3 -1 11 -7 18 -7 8 -9 17 -5 21
4 4 0 4 -10 0 -10 -3 -17 -1 -17 6 0 14 -19 34 -41 42 -9 4 4 -15 29 -42z"/>
<path d="M4670 3331 c0 -10 24 -21 48 -21 13 0 12 3 -4 15 -21 16 -44 19 -44
6z"/>
<path d="M3215 3280 c3 -5 11 -10 16 -10 6 0 7 5 4 10 -3 6 -11 10 -16 10 -6
0 -7 -4 -4 -10z"/>
<path d="M3235 3240 c-3 -5 -2 -10 4 -10 5 0 13 5 16 10 3 6 2 10 -4 10 -5 0
-13 -4 -16 -10z"/>
<path d="M4454 3235 l-29 -12 35 -5 c37 -6 60 -1 60 12 0 14 -37 17 -66 5z"/>
<path d="M3290 3209 c14 -12 40 -34 58 -51 19 -16 36 -28 38 -25 7 6 -98 97
-111 97 -5 -1 1 -10 15 -21z"/>
<path d="M3332 3134 c10 -10 20 -16 22 -13 3 3 -5 11 -17 18 -21 13 -21 12 -5
-5z"/>
<path d="M3389 3113 c7 -3 32 -23 55 -44 22 -22 45 -39 50 -39 5 0 -12 20 -38
45 -27 25 -56 45 -65 44 -12 0 -13 -2 -2 -6z"/>
<path d="M3388 3080 c12 -11 24 -20 28 -20 4 0 -1 9 -11 20 -10 11 -23 20 -28
20 -6 0 -1 -9 11 -20z"/>
<path d="M3428 3038 c5 -5 16 -8 23 -6 8 3 3 7 -10 11 -17 4 -21 3 -13 -5z"/>
<path d="M3475 3000 c10 -11 20 -18 23 -15 7 6 -18 35 -31 35 -5 0 -2 -9 8
-20z"/>
<path d="M3684 2967 c-66 -26 -82 -42 -62 -63 4 -3 4 -13 1 -21 -4 -11 -2 -14
8 -10 8 3 31 11 52 18 38 12 53 36 17 26 -11 -3 -20 0 -20 6 0 7 -5 4 -11 -6
-6 -9 -14 -15 -20 -12 -13 8 -11 25 2 25 7 0 18 8 25 18 12 14 13 14 8 1 -4
-12 4 -18 33 -23 29 -4 54 1 105 22 38 15 68 30 68 35 0 12 -27 8 -39 -7 -9
-11 -20 -12 -49 -4 -20 6 -39 13 -42 17 -3 4 -37 -6 -76 -22z m75 -7 c-6 -5
-19 -6 -27 -2 -13 4 -12 7 4 12 23 9 41 1 23 -10z m51 -4 c0 -2 -7 -6 -15 -10
-8 -3 -15 -1 -15 4 0 6 7 10 15 10 8 0 15 -2 15 -4z m-55 -16 c25 -11 -1 -11
-35 0 -20 6 -21 8 -5 8 11 0 29 -3 40 -8z"/>
<path d="M3825 2980 c3 -5 8 -10 11 -10 2 0 4 5 4 10 0 6 -5 10 -11 10 -5 0
-7 -4 -4 -10z"/>
<path d="M3565 2920 c-3 -6 1 -7 9 -4 18 7 21 14 7 14 -6 0 -13 -4 -16 -10z"/>
<path d="M2430 3865 c7 -9 15 -13 17 -11 7 7 -7 26 -19 26 -6 0 -6 -6 2 -15z"/>
<path d="M2390 3860 c0 -5 5 -10 10 -10 6 0 10 5 10 10 0 6 -4 10 -10 10 -5 0
-10 -4 -10 -10z"/>
<path d="M2567 3697 c-3 -7 12 -27 33 -45 43 -36 63 -43 35 -12 -10 11 -14 20
-9 20 5 0 -3 11 -18 25 -31 29 -34 30 -41 12z m39 -22 c10 -8 15 -14 9 -14 -5
0 -19 6 -29 14 -11 8 -15 15 -10 15 6 0 19 -7 30 -15z"/>
<path d="M2757 3559 c7 -7 15 -10 18 -7 3 3 -2 9 -12 12 -14 6 -15 5 -6 -5z"/>
<path d="M2788 3523 c7 -3 16 -2 19 1 4 3 -2 6 -13 5 -11 0 -14 -3 -6 -6z"/>
<path d="M2810 3461 c0 -6 5 -13 10 -16 6 -3 10 1 10 9 0 9 -4 16 -10 16 -5 0
-10 -4 -10 -9z"/>
<path d="M2915 3410 c3 -5 11 -10 16 -10 6 0 7 5 4 10 -3 6 -11 10 -16 10 -6
0 -7 -4 -4 -10z"/>
<path d="M2940 3359 c0 -6 -7 -9 -15 -5 -26 10 -16 -2 22 -25 20 -13 49 -36
63 -53 19 -20 29 -26 34 -17 4 6 3 10 -4 9 -19 -5 -38 31 -22 41 9 6 8 12 -8
26 -11 10 -20 13 -20 7 0 -6 6 -12 13 -15 6 -2 9 -7 6 -11 -11 -12 -68 24 -62
39 3 8 2 15 -1 15 -3 0 -6 -5 -6 -11z"/>
<path d="M2965 3360 c-3 -6 1 -7 9 -4 18 7 21 14 7 14 -6 0 -13 -4 -16 -10z"/>
<path d="M2252 3862 c-12 -11 -19 -22 -16 -25 3 -3 15 3 27 13 27 26 17 36
-11 12z"/>
<path d="M2280 3850 c-13 -9 -13 -11 0 -20 22 -14 34 -12 21 3 -6 8 -8 17 -4
20 9 10 0 8 -17 -3z"/>
<path d="M2312 3814 c-6 -11 -11 -13 -16 -5 -4 6 -12 11 -19 11 -7 0 -5 -6 5
-16 12 -13 20 -14 37 -5 11 7 21 16 21 21 0 16 -18 11 -28 -6z"/>
<path d="M2364 3762 c18 -8 18 -9 2 -15 -16 -7 -16 -8 -1 -24 16 -16 18 -16
31 2 11 15 16 16 29 5 8 -7 18 -10 21 -7 3 3 -4 11 -16 17 -16 8 -25 8 -35 0
-10 -8 -13 -7 -11 7 0 10 -7 18 -19 20 -19 3 -19 3 -1 -5z"/>
<path d="M2395 3710 c-4 -7 -1 -19 8 -27 12 -12 18 -13 36 -1 25 15 28 33 5
24 -9 -4 -22 -2 -29 4 -10 8 -15 8 -20 0z"/>
<path d="M2290 4100 c0 -5 5 -10 10 -10 6 0 10 5 10 10 0 6 -4 10 -10 10 -5 0
-10 -4 -10 -10z"/>
<path d="M2789 3370 c-1 -11 -2 -24 -3 -29 -1 -5 19 -27 44 -49 l45 -39 18 23
c14 19 15 23 2 18 -8 -3 -15 -10 -15 -16 0 -5 -5 -6 -11 -2 -8 5 -6 10 5 16
14 8 10 15 -26 53 -48 50 -57 54 -59 25z m31 -14 c0 -2 -7 -7 -16 -10 -8 -3
-12 -2 -9 4 6 10 25 14 25 6z m25 -36 c10 -11 16 -20 13 -20 -3 0 -13 9 -23
20 -10 11 -16 20 -13 20 3 0 13 -9 23 -20z"/>
<path d="M2872 2994 c-18 -13 -21 -19 -11 -30 6 -8 15 -14 18 -14 4 0 42 -34
84 -75 42 -41 79 -75 83 -75 5 0 3 5 -4 12 -8 8 -8 17 -1 30 9 16 3 27 -38 69
-47 48 -48 48 -48 21 -1 -15 4 -31 10 -35 6 -5 4 -7 -5 -5 -9 3 -15 18 -16 41
-1 33 -26 77 -43 77 -4 0 -17 -7 -29 -16z m56 -65 c-3 -8 -7 -3 -11 10 -4 17
-3 21 5 13 5 -5 8 -16 6 -23z m91 -66 c-12 -15 -12 -16 3 -10 12 4 15 2 11 -9
-5 -13 -8 -12 -25 3 -18 16 -18 18 -1 24 26 11 27 11 12 -8z"/>
<path d="M3091 3244 c0 -11 3 -14 6 -6 3 7 2 16 -1 19 -3 4 -6 -2 -5 -13z"/>
<path d="M4745 3238 c-83 -34 -168 -69 -202 -84 -17 -8 -36 -14 -42 -14 -6 0
-19 -4 -29 -9 -29 -15 -84 -38 -132 -54 -25 -8 -70 -26 -100 -40 -30 -14 -65
-28 -78 -32 -15 -4 -21 -12 -18 -21 3 -8 -1 -17 -10 -21 -14 -5 -12 -8 7 -19
20 -10 32 -9 74 8 27 11 77 31 110 44 33 12 53 23 44 23 -9 1 -25 9 -36 19
-10 9 -14 13 -7 9 37 -24 115 -25 91 0 -5 4 -13 1 -18 -7 -9 -12 -10 -11 -5 4
5 15 2 17 -19 12 -14 -4 -25 -2 -25 3 0 13 43 22 50 11 7 -12 70 -25 70 -16 0
4 -14 12 -31 18 l-30 10 24 13 c13 7 41 15 63 19 37 6 38 6 15 -8 -14 -8 -30
-12 -37 -9 -7 2 -15 0 -19 -6 -14 -24 79 2 131 35 24 16 25 19 8 25 -14 6 -15
8 -3 8 8 1 20 -4 27 -11 6 -6 15 -8 19 -4 4 4 2 11 -5 15 -10 6 -9 11 4 22 12
9 18 10 21 3 2 -6 15 -9 28 -6 20 3 24 1 19 -12 -8 -21 2 -20 60 9 27 13 52
22 56 20 3 -2 4 12 2 31 -5 39 -9 40 -77 12z m65 -12 c0 -8 -4 -17 -8 -20 -4
-2 -8 4 -8 15 0 10 4 19 8 19 4 0 8 -6 8 -14z m-34 -13 c0 -10 -10 -23 -21
-30 -26 -16 -45 -16 -24 0 8 7 18 20 22 30 3 9 11 17 16 17 5 0 8 -8 7 -17z
m-66 -13 c0 -5 -10 -10 -22 -10 -19 0 -20 2 -8 10 19 13 30 13 30 0z m-157
-67 c-7 -2 -19 -2 -25 0 -7 3 -2 5 12 5 14 0 19 -2 13 -5z m-258 -93 c-3 -5
-12 -10 -18 -10 -7 0 -6 4 3 10 19 12 23 12 15 0z m-42 -18 c-6 -4 -11 -16
-10 -26 1 -10 -5 -21 -13 -23 -13 -4 -13 -3 0 7 12 9 12 13 2 17 -10 4 -10 8
-1 19 6 8 17 14 23 14 8 0 8 -3 -1 -8z m42 -12 c3 -5 -1 -10 -9 -10 -9 0 -16
5 -16 10 0 6 4 10 9 10 6 0 13 -4 16 -10z m-88 -16 c-3 -3 -12 -4 -19 -1 -8 3
-5 6 6 6 11 1 17 -2 13 -5z m-7 -34 c0 -5 -4 -10 -10 -10 -5 0 -10 5 -10 10 0
6 5 10 10 10 6 0 10 -4 10 -10z"/>
<path d="M3106 3207 c-4 -18 -4 -18 15 -1 23 21 23 21 5 21 -8 0 -17 -9 -20
-20z"/>
<path d="M3159 3149 c24 -23 35 -21 25 5 -3 9 -16 16 -27 16 -20 0 -20 0 2
-21z"/>
<path d="M4646 3159 c4 -7 -4 -20 -17 -31 -20 -15 -21 -17 -4 -11 11 3 31 13
44 22 22 14 22 15 5 22 -28 11 -36 10 -28 -2z"/>
<path d="M4535 3092 c-47 -18 -50 -20 -43 -27 2 -3 22 4 44 14 21 10 46 21 54
24 13 5 13 5 0 5 -8 0 -33 -7 -55 -16z"/>
<path d="M3290 3060 c0 -5 7 -10 16 -10 8 0 12 5 9 10 -3 6 -10 10 -16 10 -5
0 -9 -4 -9 -10z"/>
<path d="M3323 3023 c9 -9 20 -13 24 -9 4 4 1 11 -7 16 -25 16 -35 11 -17 -7z"/>
<path d="M3308 3000 c12 -11 24 -20 28 -20 4 0 -1 9 -11 20 -10 11 -23 20 -28
20 -6 0 -1 -9 11 -20z"/>
<path d="M3385 2970 c3 -5 11 -10 16 -10 6 0 7 5 4 10 -3 6 -11 10 -16 10 -6
0 -7 -4 -4 -10z"/>
<path d="M3410 2944 c1 -5 17 -19 36 -31 l34 -22 -17 23 c-10 13 -20 22 -22
20 -2 -2 -10 1 -18 7 -7 6 -13 8 -13 3z"/>
<path d="M4080 2910 c0 -5 4 -10 9 -10 6 0 13 5 16 10 3 6 -1 10 -9 10 -9 0
-16 -4 -16 -10z"/>
<path d="M3520 2840 c-9 -6 -10 -10 -3 -10 6 0 15 5 18 10 8 12 4 12 -15 0z"/>
<path d="M3150 3033 c8 -3 18 -11 22 -17 4 -6 10 -7 15 -3 9 10 -16 27 -37 26
-13 -1 -13 -1 0 -6z"/>
<path d="M3305 2900 c-3 -5 -1 -10 4 -10 6 0 11 5 11 10 0 6 -2 10 -4 10 -3 0
-8 -4 -11 -10z"/>
<path d="M3272 2881 c2 -7 7 -12 11 -12 12 1 9 15 -3 20 -7 2 -11 -2 -8 -8z"/>
<path d="M3314 2865 c-10 -8 -14 -15 -8 -15 6 0 17 7 24 15 16 19 9 19 -16 0z"/>
<path d="M3360 2850 c11 -7 12 -12 4 -20 -9 -9 -14 -9 -18 -1 -4 6 -11 11 -17
11 -5 0 3 -13 18 -30 29 -34 43 -38 43 -14 0 11 5 14 17 9 11 -4 7 5 -11 24
-17 17 -35 31 -40 31 -6 0 -4 -5 4 -10z m30 -29 c0 -5 -7 -11 -14 -14 -10 -4
-13 -1 -9 9 6 15 23 19 23 5z"/>
<path d="M3416 2791 c-13 -5 -16 -10 -9 -14 7 -4 14 -3 18 3 7 12 25 4 25 -11
0 -6 -4 -8 -8 -5 -4 2 -14 1 -20 -3 -9 -6 -3 -18 21 -44 33 -36 34 -37 51 -18
13 14 14 21 5 27 -7 4 -10 3 -6 -3 8 -13 -12 -22 -31 -15 -10 3 -9 9 4 23 17
19 17 21 -7 43 -17 17 -30 22 -43 17z m35 -40 c4 7 11 10 15 6 4 -3 1 -14 -6
-22 -11 -13 -15 -13 -21 -3 -5 7 -8 18 -8 23 0 6 3 4 6 -4 4 -11 7 -11 14 0z"/>
<path d="M3110 2932 c0 -18 28 -45 39 -38 9 6 8 13 -5 27 -18 20 -34 25 -34
11z m28 -27 c-3 -3 -9 2 -12 12 -6 14 -5 15 5 6 7 -7 10 -15 7 -18z"/>
<path d="M3160 2890 c-8 -5 -23 -7 -34 -4 -13 4 -17 2 -13 -7 5 -15 9 -15 42
-3 l20 7 -20 -16 c-16 -13 -17 -16 -4 -17 8 0 21 6 28 13 10 10 11 9 6 -4 -9
-25 17 -40 35 -21 13 14 12 15 -3 9 -11 -4 -17 -1 -17 9 0 8 -7 17 -15 20 -8
4 -12 10 -9 15 7 11 3 11 -16 -1z"/>
<path d="M3212 2815 c-15 -8 -20 -15 -13 -19 6 -4 11 -5 11 -1 0 3 14 -2 31
-11 19 -9 27 -19 21 -23 -7 -4 -4 -15 8 -31 11 -14 20 -20 20 -14 0 7 10 14
22 17 22 6 22 7 -7 37 -16 17 -35 28 -42 26 -7 -3 -12 -2 -12 2 5 33 -3 37
-39 17z m87 -75 c-7 -5 -18 -6 -23 -3 -6 4 -6 8 2 11 9 3 9 9 1 25 -11 21 -10
21 11 -2 18 -18 20 -25 9 -31z"/>
<path d="M3090 2760 c0 -5 5 -10 11 -10 5 0 7 5 4 10 -3 6 -8 10 -11 10 -2 0
-4 -4 -4 -10z"/>
<path d="M3145 2700 c3 -5 8 -10 11 -10 2 0 4 5 4 10 0 6 -5 10 -11 10 -5 0
-7 -4 -4 -10z"/>
<path d="M3635 2455 c-5 -2 -22 -6 -37 -9 -89 -20 -129 -135 -67 -197 l20 -20
-30 -35 c-85 -97 13 -232 153 -210 70 12 107 36 128 83 24 55 17 97 -24 135
l-30 28 26 31 c37 44 36 97 -4 143 -18 20 -44 37 -63 41 -18 4 -39 8 -47 10
-8 2 -19 2 -25 0z m48 -87 c28 -22 32 -63 8 -87 -36 -36 -84 -21 -96 31 -12
48 48 86 88 56z m20 -206 c38 -33 5 -102 -49 -102 -46 0 -64 17 -64 61 0 36 4
41 32 53 34 15 53 12 81 -12z"/>
<path d="M2815 2360 c-14 -7 -8 -8 20 -3 22 3 42 7 44 9 9 8 -45 2 -64 -6z"/>
<path d="M2830 2330 c-10 -6 -2 -7 25 -3 49 7 58 13 19 13 -16 0 -36 -5 -44
-10z"/>
<path d="M2855 2312 c-43 -10 -59 -69 -28 -100 16 -16 16 -16 10 1 -5 13 -3
17 5 14 7 -2 12 -12 12 -21 -1 -10 6 -16 20 -16 28 0 50 15 42 29 -4 6 -2 11
3 11 18 0 13 46 -6 62 -26 22 -36 25 -58 20z"/>
<path d="M2669 1927 c-69 -47 -108 -149 -94 -250 16 -127 80 -197 180 -197
102 0 170 76 182 203 10 110 -35 215 -108 252 -44 23 -120 19 -160 -8z m112
-67 c35 -19 52 -70 53 -151 0 -84 -16 -121 -59 -141 -19 -9 -30 -7 -50 6 -35
23 -45 54 -45 142 0 78 15 124 47 143 23 13 30 13 54 1z"/>
<path d="M3015 1940 c-4 -6 -3 -112 1 -235 8 -260 -2 -242 119 -204 66 20 67
21 61 51 -3 17 -6 35 -6 40 0 6 -14 8 -34 4 l-34 -7 -7 181 -8 180 -43 0 c-23
0 -46 -5 -49 -10z"/>
<path d="M3598 1802 c-41 -25 -34 -33 10 -11 20 11 45 18 55 15 9 -2 17 0 17
5 0 15 -53 10 -82 -9z"/>
<path d="M3615 1781 c-13 -5 0 -8 38 -8 36 0 53 3 45 8 -16 11 -56 10 -83 0z"/>
<path d="M3622 1744 c-28 -19 -29 -67 -2 -94 37 -37 86 -19 96 37 6 31 3 39
-16 55 -27 22 -49 23 -78 2z m34 -91 c-7 -7 -26 7 -26 19 0 6 6 6 15 -2 9 -7
13 -15 11 -17z"/>
<path d="M2060 2419 c-75 -30 -115 -116 -114 -249 1 -143 53 -210 162 -210 86
0 141 41 162 121 14 52 -1 107 -40 144 -28 27 -38 30 -93 30 -34 0 -70 -4 -79
-8 -15 -8 -16 -5 -8 23 19 65 60 88 117 65 19 -8 37 -15 39 -15 5 0 44 63 44
71 0 4 -18 14 -40 23 -45 18 -112 20 -150 5z m93 -252 c10 -6 20 -28 23 -48 5
-29 2 -41 -15 -58 -25 -25 -68 -27 -93 -4 -25 22 -25 98 0 112 24 14 65 13 85
-2z"/>
<path d="M2040 1780 c-10 -7 -1 -8 30 -4 56 8 64 14 19 14 -19 0 -41 -5 -49
-10z"/>
<path d="M2058 1754 c-16 -8 -28 -19 -28 -25 0 -6 10 -3 22 5 12 9 36 16 53
16 23 0 27 3 15 10 -20 13 -30 12 -62 -6z"/>
<path d="M2078 1733 c-9 -2 -23 -15 -32 -28 -19 -29 -5 -81 26 -90 30 -10 71
3 64 20 -3 9 1 15 9 15 23 0 18 38 -10 65 -24 25 -27 26 -57 18z m-3 -93 c3
-5 1 -10 -4 -10 -6 0 -11 5 -11 10 0 6 2 10 4 10 3 0 8 -4 11 -10z"/>
<path d="M1187 2308 c-4 -104 -3 -114 15 -130 16 -14 31 -16 77 -12 54 6 59 5
79 -21 24 -30 21 -71 -6 -92 -24 -19 -80 -16 -112 7 l-28 20 -26 -40 -25 -39
35 -21 c54 -34 138 -37 194 -8 61 31 82 74 77 152 -3 53 -7 62 -40 92 -33 31
-42 34 -98 34 -52 0 -60 2 -55 16 3 9 6 27 6 40 0 23 2 24 85 24 l85 0 0 45 0
45 -129 0 -128 0 -6 -112z"/>
<path d="M1275 1780 c-4 -7 3 -8 22 -4 38 9 42 14 10 14 -14 0 -29 -5 -32 -10z"/>
<path d="M1273 1748 c-12 -6 -24 -17 -28 -26 -4 -12 -2 -12 19 2 14 9 37 16
51 16 15 0 24 4 20 10 -8 13 -34 12 -62 -2z"/>
<path d="M1272 1707 c-29 -31 -28 -58 3 -87 21 -20 30 -22 52 -14 15 5 25 13
24 18 -2 5 4 13 13 18 23 13 20 35 -9 63 -30 31 -55 32 -83 2z m22 -73 c3 -8
2 -12 -4 -9 -6 3 -10 10 -10 16 0 14 7 11 14 -7z"/>
<path d="M3007 1159 c-33 -9 -61 -19 -63 -21 -2 -2 1 -21 7 -42 11 -38 13 -39
67 -19 9 4 12 -35 12 -176 l0 -181 50 0 50 0 -2 228 -3 227 -30 1 c-16 1 -56
-7 -88 -17z"/>
<path d="M3284 1164 c-18 -9 -42 -26 -55 -40 l-23 -24 29 -30 29 -30 25 23
c37 34 60 40 87 22 18 -11 24 -25 24 -49 0 -29 -14 -50 -99 -142 -85 -92 -99
-112 -97 -138 l3 -31 149 0 149 0 3 43 3 44 -85 -4 c-48 -2 -86 -1 -86 1 0 2
27 33 61 69 34 36 70 79 80 96 27 43 25 115 -3 151 -41 52 -131 70 -194 39z"/>
<path d="M3162 544 c-35 -18 -57 -48 -47 -64 9 -15 31 -12 45 5 7 8 18 15 24
15 6 0 3 -7 -6 -14 -10 -7 -21 -27 -24 -43 -10 -50 51 -91 95 -64 7 5 11 13 7
19 -3 5 1 12 9 16 20 7 19 31 -2 64 -17 26 -17 26 0 13 15 -12 17 -11 17 3 0
21 -46 39 -81 31 -16 -4 -40 -15 -54 -26 -14 -11 -25 -16 -25 -11 0 23 56 46
108 45 58 0 58 14 1 23 -21 3 -47 -2 -67 -12z m71 -41 c-7 -2 -19 -2 -25 0 -7
3 -2 5 12 5 14 0 19 -2 13 -5z m-23 -114 c0 -6 -4 -7 -10 -4 -5 3 -10 11 -10
16 0 6 5 7 10 4 6 -3 10 -11 10 -16z"/>
<path d="M2232 1149 l-64 -20 7 -37 c9 -47 8 -46 44 -34 l29 10 7 -132 c4 -73
6 -154 4 -180 l-4 -46 54 0 54 0 -6 98 c-4 53 -7 157 -7 230 l0 132 -27 -1
c-16 0 -57 -9 -91 -20z"/>
<path d="M2505 1153 c-16 -8 -41 -26 -54 -40 l-23 -25 30 -28 c30 -27 32 -27
47 -10 44 49 108 46 121 -6 10 -38 -6 -63 -105 -167 -81 -84 -91 -99 -91 -131
l0 -37 148 3 147 3 3 43 3 42 -87 0 -87 0 76 79 c99 102 118 152 82 222 -33
64 -139 90 -210 52z"/>
<path d="M2400 539 c-28 -12 -70 -48 -70 -61 0 -5 18 5 40 23 35 28 44 31 85
26 27 -2 43 -1 38 4 -15 15 -67 19 -93 8z"/>
<path d="M2383 498 c-18 -13 -33 -32 -33 -43 0 -11 4 -15 8 -10 4 6 18 19 32
30 l25 20 -17 -21 c-27 -31 -23 -80 7 -100 29 -19 75 -12 75 11 0 8 5 15 10
15 17 0 11 52 -7 73 -17 19 -17 20 5 8 29 -15 29 3 0 23 -31 22 -68 20 -105
-6z m42 -108 c3 -5 1 -10 -4 -10 -6 0 -11 5 -11 10 0 6 2 10 4 10 3 0 8 -4 11
-10z"/>
<path d="M1463 1141 c-29 -9 -55 -19 -58 -23 -3 -3 -2 -21 3 -39 9 -34 18 -38
60 -25 l22 7 0 -181 0 -181 48 3 c59 4 56 -8 47 256 l-7 202 -32 -1 c-17 -1
-54 -9 -83 -18z"/>
<path d="M1730 1141 c-19 -11 -44 -29 -54 -40 -20 -21 -19 -22 15 -50 31 -27
35 -27 46 -11 7 9 26 23 43 30 25 10 34 10 55 -4 54 -35 19 -101 -124 -241
-44 -42 -51 -55 -51 -87 l0 -38 58 0 c33 0 100 3 150 6 l92 7 0 38 0 39 -87 0
-87 0 71 73 c103 104 123 158 88 228 -34 66 -139 90 -215 50z"/>
<path d="M1614 521 c-32 -19 -51 -41 -38 -41 4 0 16 8 27 18 14 12 36 17 78
17 64 -1 66 14 3 21 -28 4 -48 -1 -70 -15z"/>
<path d="M1618 494 c-16 -8 -28 -19 -28 -24 0 -4 -3 -17 -6 -27 -5 -13 1 -10
20 10 30 30 49 38 23 9 -47 -52 15 -139 73 -102 8 5 12 10 8 10 -5 0 1 9 11
19 23 23 18 55 -13 77 l-21 16 22 -5 c33 -7 39 11 8 23 -36 14 -65 12 -97 -6z
m37 -114 c3 -5 1 -10 -4 -10 -6 0 -11 5 -11 10 0 6 2 10 4 10 3 0 8 -4 11 -10z"/>
</g>
</svg>
