<?xml version="1.0" standalone="no"?>
<!DOCTYPE svg PUBLIC "-//W3C//DTD SVG 20010904//EN"
 "http://www.w3.org/TR/2001/REC-SVG-20010904/DTD/svg10.dtd">
<svg version="1.0" xmlns="http://www.w3.org/2000/svg"
 width="38.000000pt" height="38.000000pt" viewBox="0 0 512.000000 512.000000"
 preserveAspectRatio="xMidYMid meet">

<g transform="translate(0.000000,512.000000) scale(0.100000,-0.100000)"
fill="#000000" stroke="none">
<path d="M0 3855 l0 -1266 173 5 c94 3 411 8 702 11 1032 10 1562 16 1690 20
72 2 243 4 380 5 l250 1 -80 77 c-66 63 -248 234 -566 532 -21 19 -155 145
-298 279 l-260 244 0 126 c0 69 5 131 10 137 7 8 6 14 -1 19 -15 9 -13 122 2
128 11 4 11 7 1 18 -16 17 -17 121 -1 137 9 9 9 15 0 24 -7 7 -12 37 -12 68
l0 57 605 241 c332 133 611 242 620 242 12 0 137 -113 411 -372 l41 -39 38 15
c21 9 43 16 49 16 13 0 10 3 315 -284 l233 -220 -5 -63 c-3 -45 -1 -65 8 -71
7 -4 130 -117 274 -251 l261 -244 0 -57 c0 -46 -4 -59 -17 -65 -17 -6 -17 -7
0 -16 13 -8 17 -23 17 -67 0 -33 -5 -64 -12 -71 -10 -11 -10 -14 0 -18 8 -3
12 -25 12 -63 0 -46 -4 -59 -17 -65 -17 -6 -17 -7 0 -16 13 -8 17 -23 17 -69
0 -38 -4 -60 -13 -63 -9 -3 -9 -7 1 -20 8 -9 12 -35 10 -67 l-3 -51 -100 -40
c-71 -28 -115 -39 -152 -39 l-53 0 0 -61 c0 -33 -5 -69 -11 -80 -7 -14 -7 -24
0 -33 7 -8 6 -24 -3 -51 -8 -22 -12 -66 -10 -97 1 -34 -1 -58 -7 -58 -12 0 -8
-32 5 -41 4 -4 3 -23 -4 -43 -9 -28 -9 -40 0 -50 8 -11 8 -16 0 -21 -7 -4 -10
-16 -7 -26 3 -10 0 -20 -7 -23 -7 -3 -6 -8 4 -15 13 -10 13 -13 -2 -22 -10 -5
-18 -16 -18 -24 0 -7 -6 -15 -12 -18 -9 -3 -7 -9 7 -20 19 -15 19 -16 -8 -42
-29 -30 -28 -45 6 -45 18 0 19 -2 7 -10 -8 -5 -27 -10 -42 -10 -16 0 -28 -4
-28 -10 0 -5 10 -10 23 -10 16 0 18 -3 8 -9 -11 -7 -11 -9 0 -13 27 -10 -78
-19 -183 -16 -100 3 -108 4 -107 23 0 11 3 14 6 8 3 -8 22 -12 51 -11 l47 1
-45 7 -45 7 45 1 c32 2 41 5 33 13 -6 6 -29 10 -51 7 l-40 -3 -7 41 c-3 23 -8
90 -10 149 -2 59 -6 109 -9 112 -2 3 -2 12 1 20 3 8 0 19 -8 24 -12 8 -11 12
3 23 10 7 15 16 11 19 -3 4 -6 20 -5 37 0 20 -4 30 -14 30 -15 0 -19 16 -5 24
8 6 6 60 -4 76 -3 5 -1 11 5 15 6 4 5 12 -5 21 -8 9 -13 20 -10 25 4 5 -2 9
-12 10 -11 0 -13 3 -5 6 15 6 6 23 -14 23 -16 0 -19 -217 -7 -778 l6 -332 244
0 243 0 0 -78 c0 -47 -5 -83 -12 -90 -9 -9 -9 -12 0 -12 15 0 14 -78 0 -97 -5
-7 -5 -14 2 -18 6 -3 7 -12 3 -18 -5 -7 -9 -66 -11 -132 -1 -66 -3 -138 -3
-160 -1 -22 -5 -43 -10 -46 -9 -5 -14 -44 -9 -64 7 -28 -1 -55 -17 -55 -17 -1
-17 -1 0 -14 22 -17 22 -32 0 -41 -17 -7 -16 -8 2 -15 11 -5 14 -9 8 -9 -7 -1
-13 -8 -13 -16 0 -8 -5 -15 -12 -15 -9 0 -9 -3 0 -12 7 -7 8 -17 1 -30 -6 -12
-6 -18 1 -18 5 0 1 -9 -11 -21 -11 -11 -18 -27 -15 -35 3 -9 -1 -14 -12 -14
-13 0 -14 -2 -3 -9 20 -13 5 -29 -34 -37 -52 -9 -53 -24 -1 -24 25 0 46 -4 46
-10 0 -18 -52 -23 -159 -15 -58 4 -115 7 -126 6 -16 0 -17 2 -5 9 8 5 18 6 22
4 11 -7 68 6 68 15 0 8 -138 31 -200 32 -61 2 -34 8 80 18 l95 8 -107 2 c-60
0 -108 5 -108 10 0 5 -10 12 -22 14 -14 3 -7 5 17 6 32 2 36 4 20 11 -11 5
-38 10 -60 11 l-40 2 35 7 35 7 -33 2 c-19 0 -31 5 -27 11 4 6 -9 10 -32 11
l-38 1 50 13 c48 12 49 12 20 19 -16 4 -46 15 -64 24 l-35 17 50 5 49 5 -48 8
c-38 7 -46 11 -37 21 8 10 5 15 -11 19 -14 4 -20 11 -16 21 4 9 -1 17 -11 19
-12 3 -11 5 5 6 39 2 36 21 -4 22 -33 1 -34 2 -13 8 l25 7 -29 8 c-21 5 -26
10 -17 16 19 11 4 30 -25 30 -34 0 -30 19 6 26 16 4 27 10 24 15 -3 5 -9 7
-14 4 -12 -8 -41 6 -34 16 3 6 15 7 26 3 14 -4 18 -2 14 5 -4 6 -18 11 -31 11
-13 0 -32 3 -42 7 -13 6 -1 11 42 19 42 8 51 12 30 14 -16 1 -46 8 -65 15 -28
11 -30 14 -12 14 27 1 30 21 2 21 -11 0 -20 6 -21 13 0 6 -2 41 -4 77 -1 36
-4 67 -5 70 -1 3 -1 17 0 32 1 18 -4 28 -17 31 -16 4 -16 5 0 6 9 0 17 5 17
10 0 5 -8 12 -17 14 -17 4 -17 5 0 6 24 1 22 21 -3 21 -18 0 -26 16 -21 43 1
5 -4 7 -11 5 -10 -4 -13 -116 -11 -556 l1 -552 -362 -2 c-200 -2 -370 -2 -379
0 -15 3 -17 22 -17 155 0 262 -13 947 -18 942 -2 -2 -5 -251 -6 -552 l-1 -548
-371 -3 -371 -2 -6 136 c-4 76 -7 322 -7 547 0 226 -3 407 -7 403 -4 -4 -8
-251 -8 -549 l0 -542 -350 -3 c-192 -1 -356 -4 -364 -7 -24 -9 37 -65 73 -67
126 -7 -419 -16 -749 -13 -226 3 -425 4 -444 4 -37 0 -93 19 -87 30 2 3 -23 6
-55 6 -42 0 -58 -3 -55 -12 3 -7 1 -15 -4 -18 -6 -4 -10 -17 -10 -31 l0 -24
2173 1 c1194 0 2181 4 2192 9 l20 9 -20 1 c-11 2 -26 2 -32 1 -7 -1 -13 3 -13
9 0 5 -10 10 -22 11 -14 1 -4 6 22 13 43 12 44 13 16 18 -15 3 -74 6 -130 7
-55 1 -114 4 -131 7 -16 2 -71 6 -122 7 -57 2 -98 8 -108 17 -8 7 -18 10 -22
6 -3 -3 -1 -6 5 -6 7 0 12 -4 12 -10 0 -5 -12 -10 -26 -10 -20 0 -25 4 -20 16
5 13 -7 15 -98 12 -86 -2 -103 -1 -101 11 1 8 7 17 13 19 7 2 10 8 6 13 -3 5
42 9 108 9 62 1 261 5 443 9 181 5 344 7 362 4 l33 -6 0 -88 0 -89 280 0 280
0 0 2560 0 2560 -2560 0 -2560 0 0 -1265z m4640 -1610 c7 -9 10 -18 6 -22 -3
-3 -6 -1 -6 5 0 7 -9 12 -20 12 -11 0 -20 -5 -20 -12 0 -6 -3 -8 -6 -5 -7 7
14 37 26 37 4 0 13 -7 20 -15z m-260 -455 c10 -6 11 -10 3 -10 -7 0 -12 -5
-10 -12 1 -8 -13 -13 -40 -14 -43 -2 -46 2 -34 44 2 6 68 0 81 -8z m48 -1532
c-7 -19 -40 -21 -63 -4 -19 14 -17 15 23 16 31 0 42 -4 40 -12z"/>
<path d="M3705 4333 c-85 -19 -145 -59 -145 -98 0 -33 34 -70 81 -89 53 -22
41 -38 -34 -44 -70 -6 -113 16 -125 60 -8 31 -10 33 -60 33 -47 0 -52 -2 -52
-22 0 -31 59 -87 114 -108 113 -43 357 13 454 103 44 42 42 72 -9 115 -55 48
-145 68 -224 50z m146 -72 c57 -70 -91 -144 -160 -80 -22 21 -25 36 -15 64 18
46 142 57 175 16z"/>
<path d="M3097 3953 c-12 -13 -19 -14 -30 -5 -15 12 -22 8 -41 -25 -12 -21 31
-53 72 -53 77 0 110 60 46 86 -26 11 -33 10 -47 -3z"/>
<path d="M3261 2495 c-1 -11 -2 -264 -1 -561 l1 -542 -376 -7 c-207 -4 -379
-5 -382 -1 -4 3 -8 248 -11 543 -2 296 -7 542 -11 546 -4 4 -5 -240 -3 -543
l5 -550 -219 -1 c-121 -1 -284 -5 -364 -9 -90 -5 30 -6 315 -4 253 2 589 5
747 5 158 1 305 5 327 9 24 4 41 3 41 -2 0 -5 4 -7 9 -4 4 3 160 7 346 10 239
3 340 8 349 16 8 9 -80 10 -371 4 l-383 -7 -1 234 c-2 288 -14 891 -18 864z"/>
<path d="M1693 1933 l2 -558 -365 -5 c-255 -3 -358 -8 -343 -15 13 -6 76 -8
165 -4 79 4 247 8 373 9 127 1 223 4 214 7 -23 6 -29 141 -29 676 0 275 -4
447 -9 447 -6 0 -9 -211 -8 -557z"/>
<path d="M910 2465 c-4 -24 -7 -38 -10 -45 -2 -5 -4 -46 -15 -275 -10 -191 -9
-185 -18 -185 -4 0 -6 -18 -4 -40 2 -21 -1 -44 -7 -50 -8 -8 -7 -14 4 -20 12
-8 11 -11 -8 -16 -18 -5 -20 -9 -10 -15 15 -10 17 -41 3 -51 -6 -5 -5 -8 3 -8
6 0 12 -7 12 -15 0 -8 -5 -15 -11 -15 -8 0 -8 -4 -2 -12 6 -7 9 -22 7 -33 -1
-11 2 -23 9 -27 7 -4 -5 -8 -25 -8 -21 0 -38 -4 -38 -10 0 -5 12 -10 28 -10
23 -1 24 -2 10 -11 -24 -14 -23 -29 2 -29 17 0 19 -3 8 -19 -9 -15 -9 -23 1
-34 10 -12 8 -18 -9 -30 -18 -12 -18 -15 -5 -20 8 -4 15 -15 15 -26 0 -11 6
-21 13 -24 20 -7 -1 -20 -46 -28 l-42 -6 55 -3 c30 -1 49 -4 43 -7 -25 -10
-12 -23 22 -23 l35 0 -1 283 c-2 322 -14 842 -19 812z"/>
<path d="M3570 2432 c-19 -11 -43 -36 -53 -56 -17 -32 -18 -43 -8 -75 6 -21
20 -46 31 -56 19 -17 19 -18 -10 -45 -60 -56 -45 -155 30 -192 42 -21 128 -23
173 -4 48 20 69 50 75 106 4 46 2 52 -30 84 -34 34 -35 36 -17 52 11 10 24 34
30 55 32 105 -111 189 -221 131z m122 -69 c22 -20 23 -61 1 -85 -34 -38 -103
-11 -103 40 0 54 62 81 102 45z m8 -193 c26 -26 26 -72 0 -95 -27 -25 -80 -22
-102 6 -25 29 -22 55 7 84 29 30 68 32 95 5z"/>
<path d="M2049 2407 c-66 -35 -93 -95 -97 -217 -3 -83 0 -100 20 -139 30 -58
65 -83 125 -88 96 -9 173 61 173 157 0 106 -95 167 -195 126 -41 -17 -45 -9
-21 49 23 54 70 69 126 40 28 -14 29 -14 49 21 l21 35 -43 19 c-56 26 -105 25
-158 -3z m106 -242 c29 -28 32 -70 9 -103 -11 -16 -25 -22 -54 -22 -45 0 -70
26 -70 73 0 33 40 77 70 77 12 0 32 -11 45 -25z"/>
<path d="M1299 2413 l-97 -4 -6 -31 c-3 -17 -6 -66 -6 -109 0 -71 2 -80 23
-94 18 -11 31 -12 60 -4 85 23 147 -68 81 -120 -34 -27 -60 -26 -104 0 l-34
21 -23 -28 c-13 -16 -22 -33 -20 -39 7 -22 83 -49 134 -48 94 1 154 55 160
145 7 94 -56 154 -154 146 l-44 -3 3 45 3 45 88 3 88 3 -3 37 c-3 42 5 40
-149 35z"/>
<path d="M2832 2288 c-11 -14 -15 -33 -13 -57 1 -10 4 -11 15 -2 10 9 16 8 26
-3 6 -9 9 -20 5 -26 -7 -11 5 -13 29 -4 9 3 16 15 16 25 0 10 5 19 10 19 16 0
11 26 -8 43 -22 20 -65 22 -80 5z m68 -48 c0 -5 -5 -10 -11 -10 -5 0 -7 5 -4
10 3 6 8 10 11 10 2 0 4 -4 4 -10z"/>
<path d="M2680 1928 c-32 -16 -52 -36 -70 -68 -22 -40 -25 -57 -25 -145 0 -92
2 -104 29 -149 70 -119 227 -110 290 16 22 43 26 66 26 134 0 70 -4 89 -28
135 -48 93 -132 122 -222 77z m109 -68 c45 -24 67 -172 37 -245 -27 -64 -101
-72 -131 -14 -21 39 -29 115 -20 174 11 75 62 113 114 85z"/>
<path d="M3038 1942 c-17 -3 -18 -22 -18 -228 l0 -224 34 0 c28 0 58 8 132 34
14 5 2 72 -12 70 -5 -1 -21 -4 -36 -8 l-28 -6 -2 182 -3 181 -25 1 c-14 1 -33
0 -42 -2z"/>
<path d="M4195 1900 c-3 -5 3 -10 15 -10 12 0 18 5 15 10 -3 6 -10 10 -15 10
-5 0 -12 -4 -15 -10z"/>
<path d="M3615 1726 c-20 -30 -12 -74 10 -56 17 14 38 3 31 -16 -4 -9 2 -14
15 -14 11 0 23 8 26 18 4 9 11 20 17 24 8 5 6 16 -4 35 -22 39 -72 44 -95 9z"/>
<path d="M2060 1710 c-23 -23 -29 -80 -7 -61 17 13 38 -5 30 -25 -5 -15 15
-19 32 -6 14 10 35 49 35 66 0 36 -62 54 -90 26z m70 -50 c0 -5 -4 -10 -10
-10 -5 0 -10 5 -10 10 0 6 5 10 10 10 6 0 10 -4 10 -10z"/>
<path d="M1277 1702 c-19 -20 -24 -67 -7 -57 13 8 42 -14 34 -26 -3 -5 6 -9
20 -9 16 0 26 6 26 15 0 8 -4 15 -10 15 -5 0 -10 5 -10 11 0 6 9 8 20 4 26 -8
28 25 2 48 -24 22 -55 21 -75 -1z"/>
<path d="M60 1509 c0 -7 3 -10 6 -6 3 3 17 2 30 -3 14 -6 26 -6 29 0 4 6 -3
10 -14 10 -10 0 -26 3 -35 6 -10 4 -16 1 -16 -7z"/>
<path d="M20 1475 c0 -7 12 -10 30 -7 35 5 31 17 -6 17 -13 1 -24 -4 -24 -10z"/>
<path d="M151 1481 c-22 -14 1 -19 59 -13 44 4 50 7 30 13 -35 10 -73 10 -89
0z"/>
<path d="M35 1451 c-26 -5 -30 -11 -33 -44 l-3 -37 363 2 c237 1 320 4 238 8
-69 3 -104 7 -77 8 26 1 47 6 47 11 0 5 8 12 18 14 18 5 -154 12 -203 8 -20
-2 -27 1 -20 8 6 5 39 12 75 14 36 2 -31 4 -147 5 -117 0 -216 3 -220 5 -5 2
-21 1 -38 -2z m488 -48 c-7 -2 -21 -2 -30 0 -10 3 -4 5 12 5 17 0 24 -2 18 -5z"/>
<path d="M563 1443 c15 -2 39 -2 55 0 15 2 2 4 -28 4 -30 0 -43 -2 -27 -4z"/>
<path d="M810 1386 c0 -2 7 -6 15 -10 8 -3 15 -1 15 4 0 6 -7 10 -15 10 -8 0
-15 -2 -15 -4z"/>
<path d="M1053 1323 c9 -2 23 -2 30 0 6 3 -1 5 -18 5 -16 0 -22 -2 -12 -5z"/>
<path d="M1272 1189 c-1 -14 -5 -29 -9 -33 -10 -10 -11 -30 -17 -301 -3 -137
-8 -263 -11 -280 -3 -16 -6 -40 -6 -51 1 -14 -8 -24 -22 -28 l-22 -7 23 -9
c22 -9 28 -34 8 -30 -9 2 -26 -19 -26 -32 0 -4 7 -5 15 -2 8 4 15 1 15 -5 0
-6 -11 -13 -25 -17 -14 -3 -22 -10 -19 -15 3 -5 -20 -9 -51 -9 -65 0 -67 -19
-2 -21 l42 -1 -32 -9 c-38 -11 -53 -29 -24 -29 25 0 36 -16 15 -24 -9 -3 -36
-6 -60 -6 -24 0 -44 -4 -44 -10 0 -5 15 -10 34 -10 43 0 57 -26 18 -34 -39 -8
-634 1 -655 9 -25 10 -21 25 8 25 14 0 25 -4 25 -10 0 -13 207 -12 235 1 15 6
6 8 -30 6 -27 -2 -111 3 -185 10 -74 8 -144 11 -155 9 -29 -8 -155 5 -149 15
3 5 17 9 32 9 20 1 23 3 12 9 -13 8 -54 8 -180 2 -25 -1 -26 -2 -28 -96 l-3
-95 88 4 c115 6 832 20 1040 20 l163 1 -1 435 c-1 361 -11 709 -17 609z
m-1167 -899 c-3 -5 -10 -10 -16 -10 -5 0 -9 5 -9 10 0 6 7 10 16 10 8 0 12 -4
9 -10z m242 -56 c-3 -3 -12 -4 -19 -1 -8 3 -5 6 6 6 11 1 17 -2 13 -5z"/>
<path d="M3305 1169 c-16 -4 -46 -22 -65 -38 l-35 -30 30 -24 30 -25 28 24
c38 32 82 32 103 -1 27 -41 10 -75 -92 -183 -77 -82 -94 -106 -94 -131 l0 -31
145 0 145 0 0 35 0 35 -85 0 c-47 0 -85 4 -85 8 0 4 25 32 56 62 70 68 114
135 114 172 0 54 -25 94 -72 117 -47 22 -74 25 -123 10z"/>
<path d="M2515 1151 c-22 -10 -49 -28 -59 -40 -20 -22 -20 -22 7 -48 l27 -27
28 27 c51 49 112 28 112 -38 0 -29 -14 -49 -100 -141 -78 -84 -100 -114 -100
-136 l0 -28 150 0 150 0 0 35 0 35 -85 0 c-47 0 -85 4 -85 8 0 5 10 17 21 28
12 10 48 49 80 87 56 64 59 70 59 121 0 66 -31 110 -88 126 -51 14 -71 12
-117 -9z"/>
<path d="M2998 1153 c-49 -14 -53 -20 -42 -60 6 -20 11 -22 43 -17 l37 6 0
-39 c0 -21 1 -102 2 -179 l2 -141 38 1 c20 0 39 4 42 8 3 3 4 103 2 222 l-3
216 -37 -1 c-20 -1 -58 -8 -84 -16z"/>
<path d="M1764 1153 c-12 -2 -39 -19 -60 -38 l-39 -34 27 -27 26 -27 32 26
c52 44 110 28 110 -29 0 -39 -16 -62 -112 -161 -74 -76 -89 -97 -84 -115 3
-13 6 -26 6 -30 0 -5 66 -8 146 -8 l145 0 -3 37 -3 36 -82 -2 c-46 -1 -83 2
-83 6 0 5 23 31 51 58 105 103 135 173 103 240 -27 57 -99 84 -180 68z"/>
<path d="M2218 1142 c-44 -14 -47 -18 -41 -41 9 -40 12 -42 49 -35 l34 6 2
-178 3 -179 30 1 c17 1 36 2 43 3 9 1 12 52 12 221 l0 220 -42 -1 c-24 0 -64
-8 -90 -17z"/>
<path d="M1448 1134 c-27 -9 -45 -20 -43 -27 2 -7 6 -24 9 -39 6 -25 9 -26 32
-18 14 6 30 10 35 10 5 0 9 -75 9 -181 l0 -181 38 6 c20 3 40 5 45 6 4 0 7 99
7 220 l0 220 -42 -1 c-24 -1 -64 -8 -90 -15z"/>
<path d="M3174 465 c-19 -30 -15 -61 9 -57 9 2 20 -4 23 -13 8 -19 44 -20 44
-1 0 8 -6 16 -12 19 -8 2 -9 8 -4 13 5 5 11 4 13 -3 8 -22 23 -14 23 10 0 53
-67 76 -96 32z"/>
<path d="M2408 468 c-17 -13 -21 -28 -19 -60 1 -11 7 -15 21 -11 14 4 20 0 20
-11 0 -10 8 -16 21 -16 18 0 20 4 15 28 -3 15 -3 21 0 15 9 -20 34 -15 34 7 0
25 -34 60 -58 60 -10 0 -25 -6 -34 -12z"/>
<path d="M1638 458 c-17 -13 -21 -28 -19 -60 1 -11 7 -15 21 -11 14 4 20 0 20
-11 0 -10 8 -16 21 -16 18 0 20 4 15 28 -3 15 -3 21 0 15 10 -22 34 -14 34 10
0 46 -56 73 -92 45z"/>
<path d="M95 350 c-4 -6 10 -10 34 -10 23 0 41 3 41 8 0 11 -68 13 -75 2z"/>
<path d="M23 343 c9 -2 25 -2 35 0 9 3 1 5 -18 5 -19 0 -27 -2 -17 -5z"/>
<path d="M253 313 c9 -2 23 -2 30 0 6 3 -1 5 -18 5 -16 0 -22 -2 -12 -5z"/>
<path d="M773 253 c20 -2 54 -2 75 0 20 2 3 4 -38 4 -41 0 -58 -2 -37 -4z"/>
</g>
</svg>
